<svg id="Layer_2" data-name="Layer 2" xmlns="http://www.w3.org/2000/svg" viewBox="0 0 400 300" width="235.8" height="176.85" class="illustration styles_illustrationTablet__1DWOa"><title>A_</title><path d="M209.19,279.45,375.79,186a8,8,0,0,0,.3-13.71L214.58,72.18a8,8,0,0,0-8.19-.12L30.17,174.34a8,8,0,0,0,0,13.77L187.31,279.3A22.07,22.07,0,0,0,209.19,279.45Z" fill="#383097"></path><path d="M120,149.5,96.22,163.91s-4.75.86-5.76-3.46-10.66-9.51-17.58-5.62-.58,9.36,6.77,10.23,6.77,2.59,5.19,4.47-21.32,13.11-21.32,13.11l23.63,14.12s4.32,1.73,2.59,4-6.63-3.31-12,2.16,5.47,10.37,12,9.51S96.65,209,96.65,207s1.87-2.88,3.75-2,28.53,15.42,28.53,15.42L151.11,207s-10.09.58-14.12-4.61-2.88-10.95,4.9-11.81,18.59,2.74,18.3,10.37l24.35-13.11-28-16.28s-4,12-18.87,8.79S129,166.55,148,166Z" fill="#0ec7d3"></path><path d="M69.9,143.58v15S72.66,162,79,161.39s9-9.7,9-9.7" fill="#0ec7d3"></path><path d="M63.5,167.72v14.92l13.92,6.76-1,2.46-.08,14.45s7.29,1.67,10.88,0,5.17-7.15,8.88-7.52S137,209.66,137,209.66L151.11,207V192.07s-18.87,8.95-25.41.17" fill="#0ec7d3"></path><path d="M184.54,187.82V172.91L148,166V151.06s-11.89-.29-12.06-.23-16.29,4.09-8.86,13.65-4.51,18.19,6.24,19.91" fill="#0ec7d3"></path><g opacity="0.36"><path d="M120,149.5,96.22,163.91s-4.75.86-5.76-3.46-10.66-9.51-17.58-5.62-.58,9.36,6.77,10.23,6.77,2.59,5.19,4.47-21.32,13.11-21.32,13.11l23.63,14.12s4.32,1.73,2.59,4-6.63-3.31-12,2.16,5.47,10.37,12,9.51S96.65,209,96.65,207s1.87-2.88,3.75-2,28.53,15.42,28.53,15.42L151.11,207s-10.09.58-14.12-4.61-2.88-10.95,4.9-11.81,18.59,2.74,18.3,10.37l24.35-13.11-28-16.28s-4,12-18.87,8.79S129,166.55,148,166Z" fill="#00275e"></path><path d="M69.9,143.58v15S72.66,162,79,161.39s9-9.7,9-9.7" fill="#00275e"></path><path d="M63.5,167.72v14.92l13.92,6.76-1,2.46-.08,14.45s7.29,1.67,10.88,0,5.17-7.15,8.88-7.52S137,209.66,137,209.66L151.11,207V192.07s-18.87,8.95-25.41.17" fill="#00275e"></path><path d="M184.54,187.82V172.91L148,166V151.06s-11.89-.29-12.06-.23-16.29,4.09-8.86,13.65-4.51,18.19,6.24,19.91" fill="#00275e"></path></g><path d="M120,134.58,96.21,149s-4.75.86-5.76-3.46S79.78,136,72.87,139.91s-.58,9.36,6.77,10.23,6.77,2.59,5.19,4.47S63.5,167.72,63.5,167.72l23.63,14.12s4.32,1.73,2.59,4-6.63-3.31-12,2.16,5.47,10.37,12,9.51,6.92-3.46,6.92-5.47,1.87-2.88,3.75-2,28.53,15.42,28.53,15.42l22.19-13.4s-10.09.58-14.12-4.61-2.88-10.95,4.9-11.81,18.59,2.74,18.3,10.37l24.35-13.11-28-16.28s-4,12-18.87,8.79-8.76-13.78,10.26-14.36Z" fill="#0ec7d3"></path><path d="M286.61,150.2l-23.77,14.41s-4.75.86-5.76-3.46-10.66-9.51-17.58-5.62-.58,9.36,6.77,10.23,6.77,2.59,5.19,4.47-21.32,13.11-21.32,13.11l23.63,14.12s4.32,1.73,2.59,4-6.63-3.31-12,2.16,5.47,10.37,12,9.51,6.92-3.46,6.92-5.47,1.87-2.88,3.75-2,28.53,15.42,28.53,15.42l22.19-13.4s-10.09.58-14.12-4.61-2.88-10.95,4.9-11.81,18.59,2.74,18.3,10.37l24.35-13.11-28-16.28s-4,12-18.87,8.79-8.76-13.78,10.26-14.36Z" fill="#0ec7d3"></path><path d="M236.51,144.29v15s2.76,3.44,9.12,2.79,9-9.7,9-9.7" fill="#0ec7d3"></path><path d="M230.12,168.42v14.92L244,190.1l-1,2.46L243,207s7.29,1.67,10.88,0,5.17-7.15,8.88-7.52,40.88,10.88,40.88,10.88l14.09-2.67V192.77s-18.87,8.95-25.41.17" fill="#0ec7d3"></path><path d="M351.15,188.53V173.61l-36.57-6.93V151.76s-11.89-.29-12.06-.23-16.29,4.09-8.86,13.65-4.51,18.19,6.24,19.91" fill="#0ec7d3"></path><g opacity="0.36"><path d="M286.61,150.2l-23.77,14.41s-4.75.86-5.76-3.46-10.66-9.51-17.58-5.62-.58,9.36,6.77,10.23,6.77,2.59,5.19,4.47-21.32,13.11-21.32,13.11l23.63,14.12s4.32,1.73,2.59,4-6.63-3.31-12,2.16,5.47,10.37,12,9.51,6.92-3.46,6.92-5.47,1.87-2.88,3.75-2,28.53,15.42,28.53,15.42l22.19-13.4s-10.09.58-14.12-4.61-2.88-10.95,4.9-11.81,18.59,2.74,18.3,10.37l24.35-13.11-28-16.28s-4,12-18.87,8.79-8.76-13.78,10.26-14.36Z" fill="#00275e"></path><path d="M236.51,144.29v15s2.76,3.44,9.12,2.79,9-9.7,9-9.7" fill="#00275e"></path><path d="M230.12,168.42v14.92L244,190.1l-1,2.46L243,207s7.29,1.67,10.88,0,5.17-7.15,8.88-7.52,40.88,10.88,40.88,10.88l14.09-2.67V192.77s-18.87,8.95-25.41.17" fill="#00275e"></path><path d="M351.15,188.53V173.61l-36.57-6.93V151.76s-11.89-.29-12.06-.23-16.29,4.09-8.86,13.65-4.51,18.19,6.24,19.91" fill="#00275e"></path></g><path d="M286.6,135.29l-23.77,14.41s-4.75.86-5.76-3.46-10.66-9.51-17.58-5.62-.58,9.36,6.77,10.23,6.77,2.59,5.19,4.47-21.32,13.11-21.32,13.11l23.63,14.12s4.32,1.73,2.59,4-6.63-3.31-12,2.16,5.47,10.37,12,9.51,6.92-3.46,6.92-5.47,1.87-2.88,3.75-2,28.53,15.42,28.53,15.42l22.19-13.4s-10.09.58-14.12-4.61-2.88-10.95,4.9-11.81,18.59,2.74,18.3,10.37l24.35-13.11-28-16.28s-4,12-18.87,8.79-8.76-13.78,10.26-14.36Z" fill="#0ec7d3"></path><path d="M199,86.48l-23.77,14.41s-4.75.86-5.76-3.46-10.66-9.51-17.58-5.62-.58,9.36,6.77,10.23,6.77,2.59,5.19,4.47-21.32,13.11-21.32,13.11l23.63,14.12s4.32,1.73,2.59,4-6.63-3.31-12,2.16,5.47,10.37,12,9.51,6.92-3.46,6.92-5.47,1.87-2.88,3.75-2,28.53,15.42,28.53,15.42L230.12,144s-10.09.58-14.12-4.61-2.88-10.95,4.9-11.81,18.59,2.74,18.3,10.37l24.35-13.11-28-16.28s-4,12-18.87,8.79S208,103.53,227,103Z" fill="#0ec7d3"></path><path d="M148.91,80.56v15S151.67,99,158,98.37s9-9.7,9-9.7" fill="#0ec7d3"></path><path d="M142.51,104.7v14.92l13.92,6.76-1,2.46-.08,14.45s7.29,1.67,10.88,0,5.17-7.15,8.88-7.52S216,146.64,216,146.64L230.12,144V129.05s-18.87,8.95-25.41.17" fill="#0ec7d3"></path><path d="M263.55,124.81V109.89L227,103V88s-11.89-.29-12.06-.23-16.29,4.09-8.86,13.65-4.51,18.19,6.24,19.91" fill="#0ec7d3"></path><g opacity="0.36"><path d="M199,86.48l-23.77,14.41s-4.75.86-5.76-3.46-10.66-9.51-17.58-5.62-.58,9.36,6.77,10.23,6.77,2.59,5.19,4.47-21.32,13.11-21.32,13.11l23.63,14.12s4.32,1.73,2.59,4-6.63-3.31-12,2.16,5.47,10.37,12,9.51,6.92-3.46,6.92-5.47,1.87-2.88,3.75-2,28.53,15.42,28.53,15.42L230.12,144s-10.09.58-14.12-4.61-2.88-10.95,4.9-11.81,18.59,2.74,18.3,10.37l24.35-13.11-28-16.28s-4,12-18.87,8.79S208,103.53,227,103Z" fill="#00275e"></path><path d="M148.91,80.56v15S151.67,99,158,98.37s9-9.7,9-9.7" fill="#00275e"></path><path d="M142.51,104.7v14.92l13.92,6.76-1,2.46-.08,14.45s7.29,1.67,10.88,0,5.17-7.15,8.88-7.52S216,146.64,216,146.64L230.12,144V129.05s-18.87,8.95-25.41.17" fill="#00275e"></path><path d="M263.55,124.81V109.89L227,103V88s-11.89-.29-12.06-.23-16.29,4.09-8.86,13.65-4.51,18.19,6.24,19.91" fill="#00275e"></path></g><path d="M199,71.57,175.22,86s-4.75.86-5.76-3.46S158.8,73,151.88,76.9s-.58,9.36,6.77,10.23,6.77,2.59,5.19,4.47-21.32,13.11-21.32,13.11l23.63,14.12s4.32,1.73,2.59,4-6.63-3.31-12,2.16,5.47,10.37,12,9.51,6.92-3.46,6.92-5.47,1.87-2.88,3.75-2,28.53,15.42,28.53,15.42l22.19-13.4s-10.09.58-14.12-4.61-2.88-10.95,4.9-11.81,18.59,2.74,18.3,10.37l24.35-13.11-28-16.28s-4,12-18.87,8.79S208,88.62,227,88Z" fill="#0ec7d3"></path><path d="M181.08,50.54a1.28,1.28,0,0,1,.55-.78,4.24,4.24,0,0,1,.41-4.62,2.77,2.77,0,0,1,1.27-.76A4,4,0,0,1,185,41.81a4.38,4.38,0,0,1,2.72-3.88h0a4.78,4.78,0,0,1,.79-.35,1.29,1.29,0,0,1,.8,0,6.47,6.47,0,0,1,.83,0,5.09,5.09,0,0,1,7.45-1.8,3,3,0,0,1,.45-.42,5.12,5.12,0,0,1,3.94-.47,4,4,0,0,1,3,1.8,3,3,0,0,1,.22.5,2.87,2.87,0,0,1,3.5.88,3.24,3.24,0,0,1,.63,1.3,3.91,3.91,0,0,1,2.29.55,3.23,3.23,0,0,1,1.36,3,4.56,4.56,0,0,1,.44.58,4.4,4.4,0,0,1,2.83,2.06,3.6,3.6,0,0,1,.46,2.19,3.21,3.21,0,0,1,2.71,2.84,2.53,2.53,0,0,1-1,2.47,3.33,3.33,0,0,1,.09,3.39,4,4,0,0,1-1.19,1.32,3.13,3.13,0,0,1,.6,4,3.41,3.41,0,0,1-2.43,1.61c0,.08-.06.17-.1.25a3.37,3.37,0,0,1-.32.49c.37,1.45.59,3.26-1.17,3.7a3.63,3.63,0,0,1-1.79,0,2.47,2.47,0,0,1-3.26.58l-.43.13a1.42,1.42,0,0,1-1.72-1,6.37,6.37,0,0,1,.12-3.69c-.15-.37-.31-.74-.48-1.1a1.4,1.4,0,0,1-.37-.75c-.16-.31-.33-.62-.51-.93s-.51-.56-.75-.87a1.27,1.27,0,0,1-1.35-1,3.6,3.6,0,0,1,.19-2.37A2.94,2.94,0,0,1,202,54.5a3.53,3.53,0,0,1,0-.76,2.58,2.58,0,0,1-1.78-.05,2.87,2.87,0,0,1-1.6-1.46,3.9,3.9,0,0,1-4.45,1,3,3,0,0,1-1.44-1.58,3.76,3.76,0,0,1-1.79.44,1.94,1.94,0,0,1-1.74-1,3.08,3.08,0,0,1-1,.61l-.41,5.06a1.57,1.57,0,0,1-.05.3,1.44,1.44,0,0,1-1.56,2.11A6.91,6.91,0,0,1,181.08,50.54Z" fill="#312725"></path><path d="M228,116s-.85-13.56-1.16-16.92c-.29-3-1.3-16.36-9.63-20.57-10.54-5.32-22.68-12.23-33.9-9-9.09,2.61-12.2,34.09-12.1,36.19C171.36,109.49,199.57,129.42,228,116Z" fill="#ff8386"></path><path d="M209.79,76.63c0,.62-10.8,12.62-12.6,11.52s-2.62-8.68-3.72-8-5.16,5.58-5.75,5.2S188.6,72,189.8,69.81,209.79,71.81,209.79,76.63Z" fill="#2b415d"></path><path d="M187.73,48.63s0,8.81,0,12.08c0,3.45,1.41,12.77,7.08,12.48s11.49-6.9,11.49-8.41c0,0,5.73-3.57,2.49-6.32s-3.49,1.9-3.49,1.9-1.76-2.56-1.88-9.41A29.93,29.93,0,0,1,187.73,48.63Z" fill="#c27a62"></path><path d="M206,73.92c-2.89,2.67-7.6,3.16-12,2.54a1.42,1.42,0,0,1-1.31-1.23c-.07-1.33-.15-2.67-.27-4l15-7.31-1.16,9.54S206.23,73.63,206,73.92Z" fill="#c27a62"></path><path d="M195.78,76.63c-.58,0-1.16-.1-1.74-.19a1.37,1.37,0,0,1-1.26-1.19c0-.69-.07-1.39-.11-2.08,3.17,0,8.81-.75,11.78-6.61A12.79,12.79,0,0,1,195.78,76.63Z" fill="#a8523b"></path><path d="M211.07,120.53l-.84,0q.12-8.5,0-17a.93.93,0,0,1,1.86,0q.08,8.45,0,16.89Z" fill="#bc424b"></path><path d="M180.33,113.42h0l-.19-.09-.5-.28-.59-.33-.49-.27q0-10.1.6-20.19c.07-1.19,1.93-1.2,1.86,0q-.58,10.4-.6,20.81A.93.93,0,0,1,180.33,113.42Z" fill="#bc424b"></path><path d="M185,49.43a1.31,1.31,0,0,1,1.15-1,3.08,3.08,0,0,1,0-.61c.06-1.79,2.85-1.8,2.8,0a.54.54,0,0,0,.12.36,1.54,1.54,0,0,1,1.4-1.39,1.32,1.32,0,0,1,.66-.18,1.41,1.41,0,0,1,1.4,1.4,3.62,3.62,0,0,1-.13.7c.26.39.53.78.82,1.15s1.61,1.49,1.94.95l0,0a1.37,1.37,0,0,1,.91-2.34,1.31,1.31,0,0,1,1-.47,1.41,1.41,0,0,1,1.4,1.4c0,.06,0,.13,0,.19a4,4,0,0,0,2.76-.18,1,1,0,0,1,.37-.07,2.49,2.49,0,0,1,.21-.4,1.44,1.44,0,0,1,1.91-.5,1.41,1.41,0,0,1,.5,1.91,1.45,1.45,0,0,0-.13.2s0,0,0,0a1.18,1.18,0,0,1,.62,0,1.4,1.4,0,0,1,2.69.76,3.09,3.09,0,0,1-1.9,2.18c0,.09,0,.18,0,.27a1.27,1.27,0,0,1,.9,2,4.68,4.68,0,0,1-.68.76c.06.18.12.37.18.56a1.53,1.53,0,0,1,.07.16,7.43,7.43,0,0,1-.53,6,1.41,1.41,0,0,1-2.41,0,11.83,11.83,0,0,1-1.17-5.72,3.63,3.63,0,0,1-.54-.17A3.94,3.94,0,0,1,199,55.07a4,4,0,0,1-2.65-1.87,3.37,3.37,0,0,1-2.37.43A4.49,4.49,0,0,1,191.42,52a3.53,3.53,0,0,1-3.18,1.69A3.58,3.58,0,0,1,185,49.43Z" fill="#312725"></path><path d="M91.61,176.31s.81-13,1.12-16.23C93,157.17,94,144.39,102,140.35c10.11-5.1,21.76-11.73,32.52-8.64,8.72,2.5,11.7,32.7,11.6,34.71C145.92,170,118.85,189.16,91.61,176.31Z" fill="#8ea7d9"></path><path d="M109,136.81s-1.87,11.32,8.8,12.22c7.46.63,5.81-5.43,5.81-5.43s3.65,3,7.53.68-2.47-11.31-5.37-11.92S115.9,131.95,109,136.81Z" fill="#fff"></path><circle cx="106.64" cy="108.35" r="8.43" transform="translate(-45.23 115.24) rotate(-48.05)" fill="#f4c458"></circle><path d="M130.65,115.38a10.16,10.16,0,0,0,2.2-5.89,9.56,9.56,0,0,0-.14-3.1,4.32,4.32,0,0,0-2-2.5,10.33,10.33,0,0,1-2-1.68s-22-4.28-24.56,8.56h0c-.46,3.6-.2,14.44,9.66,19S119.2,118,119.2,118" fill="#f4c458"></path><path d="M125.31,133.64l-13.15-6.43,1.11,9.15s.09.18.26.45c2.39,2.2,6.06,2.85,9.69,2.61a1.65,1.65,0,0,0,1.53-1.49C124.9,136.49,125.07,135.06,125.31,133.64Z" fill="#fcded2"></path><path d="M131.07,112.94s.78-4.29-4.06-5c-1.29-.2-2.53-.21-3.32,1-1,1.49-1.1,3.25-2.51,4.51a4.92,4.92,0,0,1-5.14.82c0,1.43.17,2.5,1.92,3S129.71,115.74,131.07,112.94Z" fill="#fcded2"></path><path d="M113.66,108.87c5.25-1.87,10.25-3,15.81-2.22a1,1,0,0,1,.91.94c.41-2.23.95-7.86-3.59-9.56-5.7-2.14-15.22.56-17.85,5.7a16.34,16.34,0,0,0-1.82,8.21A22.57,22.57,0,0,1,113.66,108.87Z" fill="#f4c458"></path><path d="M125,136l-.21,1.92s-8.75-.25-10-7.36Z" fill="#eab1a2"></path><path d="M131.1,112.55s0,8.45,0,11.59c0,3.31-3.27,12-6.79,12-5.49,0-11-6.62-11-8.07,0,0-5.5-3.42-2.39-6.06s3.35,1.82,3.35,1.82,1.69-2.45,1.8-9A28.71,28.71,0,0,0,131.1,112.55Z" fill="#fcded2"></path><path d="M138.92,173a16.29,16.29,0,0,0,1.47-1,98.19,98.19,0,0,0-2.63-19.55c-.27-1.12-2-.65-1.72.48a96,96,0,0,1,2.61,20.24Z" fill="#5d84c1"></path><path d="M105.37,180.37a5.34,5.34,0,0,1,.76.07l.66-22.56a.89.89,0,0,0-1.79,0l-.65,22.41A6.22,6.22,0,0,1,105.37,180.37Z" fill="#5d84c1"></path><path d="M316.47,180.5s-.86-13.81-1.19-17.23c-.29-3.09-1.32-16.66-9.81-20.95-10.73-5.42-23.09-12.45-34.52-9.17-9.26,2.66-12.42,34.71-12.32,36.84C258.83,173.84,287.55,194.14,316.47,180.5Z" fill="#4b1b13"></path><path d="M299.56,139.44c-.2-.1-6.27,4.44-6.55,11.18S291.7,185,291.7,185s-14.72-.87-23.85-7.21c0,0,2.07-32.06,5-38.34s11-6.28,11-6.28Z" fill="#0ec7d3"></path><path d="M299.56,139.44c-.2-.1-6.27,4.44-6.55,11.18S291.7,185,291.7,185s-14.72-.87-23.85-7.21c0,0,2.07-32.06,5-38.34s11-6.28,11-6.28Z" fill="#fff"></path><path d="M276,114.88a13.29,13.29,0,0,1-3.59-6.16c-1.32-4.3.88-10.54,5.54-11.12S284,99.44,284,99.44,301.4,96.36,304.08,110h0c.49,3.82,2.58,17.66-8.71,20.69s-7.23-13-7.23-13" fill="#4b1b13"></path><path d="M275.5,111.87s0,9,0,12.3c0,3.51,1.44,13,7.21,12.7s11.7-7,11.7-8.56c0,0,5.84-3.63,2.54-6.43s-3.55,1.93-3.55,1.93-1.79-2.6-1.91-9.58A30.47,30.47,0,0,1,275.5,111.87Z" fill="#ffac73"></path><path d="M294.15,137.62c-2.95,2.72-7.74,3.22-12.17,2.59a1.45,1.45,0,0,1-1.33-1.25c-.07-1.36-.16-2.71-.27-4.07l15.24-7.45-1.18,9.71S294.33,137.33,294.15,137.62Z" fill="#ffac73"></path><path d="M283.7,140.39c-.59,0-1.19-.11-1.77-.19a1.39,1.39,0,0,1-1.28-1.21c0-.71-.07-1.41-.12-2.12,3.23,0,9-.76,12-6.73A13,13,0,0,1,283.7,140.39Z" fill="#e5894a"></path></svg>