<svg xmlns="http://www.w3.org/2000/svg" xmlns:xlink="http://www.w3.org/1999/xlink" viewBox="0 0 400 300" width="235.8" height="176.85" class="illustration styles_illustrationTablet__1DWOa"><defs><linearGradient id="linear-gradient" x1="294.43" y1="214.91" x2="307.6" y2="191.81" gradientUnits="userSpaceOnUse"><stop offset="0" stop-color="#fff" stop-opacity="0"></stop><stop offset="1" stop-color="#9e005d"></stop></linearGradient><linearGradient id="linear-gradient-2" x1="2851.74" y1="176.86" x2="2838.91" y2="163.25" gradientTransform="matrix(-1, 0, 0, 1, 3082.61, 0)" xlink:href="#linear-gradient"></linearGradient><linearGradient id="linear-gradient-3" x1="2891.97" y1="152.59" x2="2879.14" y2="138.99" gradientTransform="matrix(-1, 0, 0, 1, 3082.61, 0)" xlink:href="#linear-gradient"></linearGradient><linearGradient id="linear-gradient-4" x1="2870.24" y1="163.85" x2="2857.37" y2="150.2" gradientTransform="matrix(-1, 0, 0, 1, 3082.61, 0)" xlink:href="#linear-gradient"></linearGradient><linearGradient id="linear-gradient-5" x1="143.4" y1="245.05" x2="165.28" y2="229.96" xlink:href="#linear-gradient"></linearGradient><linearGradient id="linear-gradient-6" x1="113.08" y1="197.73" x2="100.32" y2="183.27" gradientTransform="matrix(-1, 0, 0, 1, 154.1, 0)" xlink:href="#linear-gradient"></linearGradient></defs><title>PP</title><g style="isolation: isolate;"><g id="Layer_2" data-name="Layer 2"><path d="M194.28,291.14,14.56,184.93C8.84,181.71,3.93,176.44,9.51,173L189.88,69c2.71-1.68,6.82-2.78,9.57-1.18L388.11,177.34c5.72,3.32,6.75,12.6,1,15.93L218,291A23.9,23.9,0,0,1,194.28,291.14Z" fill="#7bbdef"></path><path d="M270.68,209.08c5.17,3,30.77,15.78,35.71,19.07l28.22-15.93-46.39-23.08-26.12,14.69C265,205.33,267.92,207.45,270.68,209.08Z" opacity="0.63" fill="url(#linear-gradient)" style="mix-blend-mode: multiply;"></path><polyline points="165.03 55.13 165.03 107.45 213 134.97 313.14 192.45" fill="none" stroke="#f2f2f2" stroke-miterlimit="10" stroke-width="3"></polyline><path d="M134.92,39.22c.6-.76,9-5.71,9-5.71v0c1.71-1.89,4.89-1.23,9,2.36,0,0,.14-3.95,4.87-4.58s6.08,1.52,6.08,1.52,1.59-7.48,11.07-4.67c8.61,2.55,7.39,11.21,7.39,11.21s5.35-1.34,9.63,4.55a22.2,22.2,0,0,1,4,12.78S204.9,60,206,68.15a20.06,20.06,0,0,1,.18,2.13l0,.21a24.47,24.47,0,0,1-.47,5.25,3.42,3.42,0,0,1-1.68,2.38l-9.54,5.45a13.62,13.62,0,0,1,1-7L148.28,49.17a20.6,20.6,0,0,1-5.13-7.39l-3.63-.94S134.33,40,134.92,39.22Z" fill="#053855" opacity="0.1"></path><path d="M134.92,39.22c.6-.76,9-5.71,9-5.71v0c1.71-1.89,4.89-1.23,9,2.36,0,0,.14-3.95,4.87-4.58s6.08,1.52,6.08,1.52,1.59-7.48,11.07-4.67c8.61,2.55,7.39,11.21,7.39,11.21s5.35-1.34,9.63,4.55a22.2,22.2,0,0,1,4,12.78S204.9,60,206,68.15a20.06,20.06,0,0,1,.18,2.13l0,.21a24.47,24.47,0,0,1-.47,5.25,3.42,3.42,0,0,1-1.68,2.38l-9.54,5.45a13.62,13.62,0,0,1,1-7L148.28,49.17a20.6,20.6,0,0,1-5.13-7.39l-3.63-.94S134.33,40,134.92,39.22Z" fill="#053855" opacity="0.1"></path><path d="M134.92,39.22c.6-.76,9-5.71,9-5.71v0c1.71-1.89,4.89-1.23,9,2.36,0,0,.14-3.95,4.87-4.58s6.08,1.52,6.08,1.52,1.59-7.48,11.07-4.67c8.61,2.55,7.39,11.21,7.39,11.21s5.35-1.34,9.63,4.55a22.2,22.2,0,0,1,4,12.78S204.9,60,206,68.15a20.06,20.06,0,0,1,.18,2.13l0,.21a24.47,24.47,0,0,1-.47,5.25,3.42,3.42,0,0,1-1.68,2.38l-9.54,5.45a13.62,13.62,0,0,1,1-7L148.28,49.17a20.6,20.6,0,0,1-5.13-7.39l-3.63-.94S134.33,40,134.92,39.22Z" fill="#0ab214"></path><path d="M134.92,39.22c.6-.76,9-5.71,9-5.71v0c1.71-1.89,4.89-1.23,9,2.36,0,0,.14-3.95,4.87-4.58s6.08,1.52,6.08,1.52,1.59-7.48,11.07-4.67c8.61,2.55,7.39,11.21,7.39,11.21s5.35-1.34,9.63,4.55a22.2,22.2,0,0,1,4,12.78S204.9,60,206,68.15a20.06,20.06,0,0,1,.18,2.13l0,.21a24.47,24.47,0,0,1-.47,5.25,3.42,3.42,0,0,1-1.68,2.38l-9.54,5.45a13.62,13.62,0,0,1,1-7L148.28,49.17a20.6,20.6,0,0,1-5.13-7.39l-3.63-.94S134.33,40,134.92,39.22Z" fill="#053855" opacity="0.23"></path><path d="M189.35,84.21,139.12,55s-6.16-5.4-5.78-11.45,4.38-7,10.4-1.8c0,0,.13-5.07,4.87-4.58a8.58,8.58,0,0,1,6.54,3.6s-.95-9,8.53-6.21a13.19,13.19,0,0,1,9.46,10.66s5.35-1.34,9.63,4.55a22.2,22.2,0,0,1,4,12.78s9,3.26,10.14,11.44S194.1,85.88,189.35,84.21Z" fill="#0ab214"></path><polyline points="235.11 99.35 235.11 159.66 255.31 173.02 278.16 159.91 278.16 97.63" opacity="0.3"></polyline><polygon points="255.31 110.7 255.31 173.02 278.16 159.91 278.16 97.63 255.31 110.7" opacity="0.3"></polygon><polygon points="235.3 99.46 258.31 86.17 278.35 97.74 255.5 110.81 235.3 99.46" opacity="0.3"></polygon><path d="M235.11,159.67l21.72,12L235,185.38h-.57c-8.83-4.87-14.8-8.48-21.07-12.35C222.43,166.84,227.6,165,235.11,159.67Z" opacity="0.63" fill="url(#linear-gradient-2)" style="mix-blend-mode: multiply;"></path><polyline points="235.11 99.35 235.11 159.66 255.31 173.02 278.16 159.91 278.16 97.63" opacity="0.18"></polyline><path d="M195.21,136.39l21.39,11-21.8,13.67h-.57c-8.83-4.87-14.8-8.48-21.07-12.35C181.26,144.44,187.7,141.68,195.21,136.39Z" opacity="0.63" fill="url(#linear-gradient-3)" style="mix-blend-mode: multiply;"></path><path d="M216.1,147.75l21.11,9.81-23.83,13.9c-.19,0-.66-.23-.84-.23-8.83-4.87-10.25-6.25-16.53-10.12C196,161.12,208.6,153,216.1,147.75Z" opacity="0.63" fill="url(#linear-gradient-4)" style="mix-blend-mode: multiply;"></path><polyline points="195.24 110.06 195.24 136.88 215.44 148.05 238.29 136.14 238.29 108.34" fill="#8bd346"></polyline><polygon points="215.44 121.41 215.44 148.05 238.29 136.14 238.29 108.34 215.44 121.41" fill="#72b22f"></polygon><polygon points="195.24 110.06 218.25 96.77 238.29 108.34 215.44 121.41 195.24 110.06" fill="#72b22f"></polygon><polyline points="215.04 103.51 215.04 147.14 235.24 158.88 258.1 145.46 258.1 101.79" fill="#f49992"></polyline><polygon points="235.24 114.86 235.24 158.88 258.1 145.86 258.1 101.79 235.24 114.86" fill="#ea6b65"></polygon><polygon points="215.04 103.51 238.06 90.22 258.1 101.79 235.24 114.86 215.04 103.51" fill="#ffc8c2"></polygon><polyline points="235.11 99.35 235.11 159.66 255.31 173.02 278.16 159.91 278.16 97.63" fill="#0ab214"></polyline><polygon points="255.31 110.7 255.31 173.02 278.16 159.91 278.16 97.63 255.31 110.7" fill="#0ab214"></polygon><polyline points="235.11 99.35 235.11 159.66 255.31 173.02 278.16 159.91 278.16 97.63" opacity="0.12"></polyline><polygon points="255.31 110.7 255.31 173.02 278.16 159.91 278.16 97.63 255.31 110.7" fill="#0ab214"></polygon><polygon points="255.31 110.7 255.31 173.02 278.16 159.91 278.16 97.63 255.31 110.7" opacity="0.31"></polygon><polygon points="235.3 99.46 258.31 86.17 278.35 97.74 255.5 110.81 235.3 99.46" fill="#0ab214"></polygon><polyline points="330.53 214.08 334.62 212.21 335.66 210.18 331.05 209.76" fill="#56403d"></polyline><polygon points="287.09 86.28 291.3 84.33 291.3 87.88 287.09 86.28" fill="#56403d"></polygon><path d="M293.95,84.38c9.61,5.69,33.38,19.76,40.49,23.89a4,4,0,0,1,2,3.47v97.61c.15,2-2.11,3.83-3.94,2.79l-40-22.76a4.57,4.57,0,0,1-2.63-4.07V86.71A2.7,2.7,0,0,1,293.95,84.38Z" fill="#56403d"></path><path d="M289.47,86.46c9.61,5.69,33.38,19.76,40.49,23.89a4,4,0,0,1,2,3.47v97.61c.15,2-2.11,3.83-3.94,2.79l-40-22.76a4.57,4.57,0,0,1-2.63-4.07V88.79A2.7,2.7,0,0,1,289.47,86.46Z" fill="#0ab214"></path><path d="M312.52,128.14c-2.44-2.5-5.07-3.83-7.54-3.83a6.66,6.66,0,0,0-1.38.14,8,8,0,0,0-4.67,3.22,46,46,0,0,0-3.52-4.33,13,13,0,0,1,7.06-4.24c4.75-1,9.71.85,14,5.22a27.41,27.41,0,0,1,3.38,4.27c-1.56.94-3.08,2-4.6,3A22,22,0,0,0,312.52,128.14Z" fill="#56403d"></path><path d="M312.5,166.68c2.61-.78,4.78-3.19,6.14-6.85a27.94,27.94,0,0,0,.69-15.24,31.21,31.21,0,0,0-3.49-9.24c1.52-1,3-2,4.6-3a36.63,36.63,0,0,1,4.24,11.06,33.45,33.45,0,0,1-.92,18.28c-1.95,5.24-5.29,8.78-9.48,10.11C313.74,170.11,313.17,168.38,312.5,166.68Z" fill="#ffa197"></path><path d="M291.81,132.33a20.33,20.33,0,0,1,2.85-5.27,45.87,45.87,0,0,1,3.57,4.46,16.17,16.17,0,0,0-1.29,2.72,30.37,30.37,0,0,0,6.11,28.9c2.69,2.76,5.6,4.08,8.28,3.78.69,1.72,1.26,3.47,1.81,5.24h0a12.28,12.28,0,0,1-2.54.27c-3.94,0-7.92-1.89-11.42-5.48a35.78,35.78,0,0,1-7.32-34.62Z" fill="#f2f2f2"></path><ellipse cx="304.87" cy="149.14" rx="3.42" ry="6.19" transform="matrix(0.99, -0.11, 0.11, 0.99, -14.63, 34.66)" fill="#f2f2f2"></ellipse><path d="M291.16,175.53l31.54,17.61a1.09,1.09,0,0,1-1.06,1.9l-31.54-17.61A1.09,1.09,0,0,1,291.16,175.53Z" fill="#f2f2f2"></path><path d="M291.66,171.39,323.2,189a1.09,1.09,0,0,1-1.06,1.9L290.6,173.3A1.09,1.09,0,0,1,291.66,171.39Z" fill="#f2f2f2"></path><polyline points="171.98 113.92 198.64 131.77 201.72 104.32 175.09 86.41 171.98 113.92" fill="#124577"></polyline><path d="M174.2,105.69a5.36,5.36,0,0,0-2.53,2.32l0,.08c-1.59,1.3-1.84,3.67-3.52,4.84,0,0-1.59,1.16-1.6,1.21s.15-2.17.15-2.16v0c-.55,1.5-1.08,3-1.56,4.53a.94.94,0,0,0,.24.11l-.18.09-.15.09a.51.51,0,0,1-.3.34,1.2,1.2,0,0,0,1.68,1.41l5.1-2.49a14.23,14.23,0,0,0,2-.58c0-.53.08-1.07.13-1.6a4.48,4.48,0,0,0,.34-4.23l.09-.09,0-.06a3.89,3.89,0,0,0,1.61-2.54C175.74,106.23,175,105.31,174.2,105.69Z" fill="#f7931e"></path><path d="M138.78,244.17c4.32,3,9.84,5.06,14,8.35l31.32-22.36-27.44-7.73L130.82,239.8C133.19,241.31,136.47,242.55,138.78,244.17Z" opacity="0.63" fill="url(#linear-gradient-5)" style="mix-blend-mode: multiply;"></path><path d="M159.08,217.67v4.62s9.75-3.62,11.64-2c2.81,2.41-5.22,7.22-13.45,8.83-1.53.3-3.35.67-4.87.14-2.43-.85-1.41-4.53-1.41-6.42s-.1-4-.14-6" fill="#124577"></path><path d="M173.33,224.09v4.62s9.75-3.62,11.64-2c2.81,2.41-5.22,7.22-13.45,8.83-1.53.3-3.35.67-4.87.14-2.43-.85-1.41-4.53-1.41-6.42s-.1-4-.14-6" fill="#124577"></path><path d="M173.53,142.62s9.23,62.21,8.23,76.66c0,0-2.41,9.63-23.28,6.42,0,0-1.81-7.22-1-19.47s3-63.61,3-63.61Z" fill="#0ab214"></path><path d="M168.41,216.14l-3.15-74.23-14-1.3s-4,19.27-2.81,28.5-1.4,21.47-2,27.89c-.54,5.76-.76,15.72,1.23,20.17C154.41,219.1,161.7,218.45,168.41,216.14Z" fill="#0ab214"></path><path d="M167.71,110.51s5.82,3.61,6.42,6.62c0,0-4.09,8.88-3.81,9.23,4.62,6-9.23-3.81-9.23-3.81S163.9,114.12,167.71,110.51Z" fill="#0ab214"></path><path d="M167.71,110.51s5.82,3.61,6.42,6.62c0,0-4.09,8.88-3.81,9.23,4.62,6-9.23-3.81-9.23-3.81S163.9,114.12,167.71,110.51Z" fill="#00a99d"></path><path d="M199.84,120.48a1.23,1.23,0,0,0-.8-1.69,1.39,1.39,0,0,0,.07-.92A1.24,1.24,0,0,0,198,117a1.44,1.44,0,0,0-.46,0s0-.07,0-.11a1.3,1.3,0,0,0-.9-1.15,1.22,1.22,0,0,0-.48,0,19.57,19.57,0,0,0,.82-2c.25-.68.73-1.9.14-2.53-.38-.41-.83-.24-1.21.07a1.51,1.51,0,0,0-.66.79,11.1,11.1,0,0,0-.67,1.23q-.5.85-1,1.7v0a.43.43,0,0,0-.32-.09,2.37,2.37,0,0,0-2.27,1.64,20.44,20.44,0,0,0-1.14,4.09.45.45,0,0,0,.38.54l-.09.23a.48.48,0,0,0,.79.52l.06-.07a.46.46,0,0,0,.08.16l-.28.45c-.26.41.33.85.69.62l-.2.33c-.27.47.45.93.79.52l.28-.33a.55.55,0,0,0,.45.08.52.52,0,0,0,.15.36.44.44,0,0,0,.33.33l0,.11a.53.53,0,0,0,.29.66l-.09.13c-.35.49.36,1.13.72.63q1.06-1.49,2.11-3a.46.46,0,0,0,.17,0C197.74,122.68,199.4,121.88,199.84,120.48Zm-3.54-3.79a.31.31,0,0,1,.24.13l-.12.06-.23-.17Z" fill="#f7931e"></path><path d="M163.9,98c0,.13.81,8.27-1,10.07s-6.66,1.05-7.86-.91-2.67-4.54-1.39-7.58S163.68,96,163.9,98Z" fill="#f7931e"></path><path d="M161.29,103.26a.81.81,0,0,0-.14-.87A3.93,3.93,0,0,0,159,101a1.65,1.65,0,0,0-1.93,1c-.56,1.85,2.44,2.39,3.66,2.55a.82.82,0,0,0,.81-.81A.73.73,0,0,0,161.29,103.26Z" fill="#ffe8e6"></path><path d="M157.59,219.83a124.13,124.13,0,0,1-2.11-14.09,50.17,50.17,0,0,1,0-7,67.71,67.71,0,0,1,1-7.11,51.58,51.58,0,0,0,.57-12.77c-.32-4.38-1-8.72-1.41-13.09a47.11,47.11,0,0,1,.48-14.76c.14-.63-.83-.9-1-.27-1.94,8.72-.07,17.56.75,26.29a52.45,52.45,0,0,1-.26,13.56c-.37,2.2-.81,4.38-1,6.59a46.26,46.26,0,0,0-.17,7.14,115.49,115.49,0,0,0,2.22,15.71C156.75,220.73,157.71,220.46,157.59,219.83Z" fill="#fff"></path><path d="M189.08,117.82c-.09,4-8.89,8.73-14.93,5.59-2.94-1.52-4.12-10.84-17.14-10.78-.84,0-5.07-1.8-7.29,3.75s0,21.46,1.48,24.24c1.31,2.45,10,8.33,22.39,2l.19-5.74s1.73,0,4.13-.17a.49.49,0,0,1,.3-.88c7.39.25,15.2-5.43,19-12.18A17.32,17.32,0,0,0,189.08,117.82Z" fill="#00a99d"></path><path d="M179.93,135.51a16,16,0,0,1-18.79-6.24c-.26-.4-.9,0-.64.37a16.78,16.78,0,0,0,19.62,6.58C180.57,136.07,180.38,135.35,179.93,135.51Z" fill="#fff"></path><path d="M172.62,122a11.92,11.92,0,0,0-2.88-4.07c-1.42-1.29-3.17-2.12-4.65-3.33-.3-.24-.73.18-.43.43,1.4,1.14,3,1.94,4.42,3.11a11.48,11.48,0,0,1,3,4.16C172.25,122.7,172.77,122.39,172.62,122Z" fill="#fff"></path><path d="M164.08,99.12l-2.59,1.36s2,7.63,2.61,9.63-1.81,4.82-9.63,5-7.43-11.64-5.62-16.05,7.22-6.42,11.64-5.22A4.55,4.55,0,0,1,164.08,99.12Z" fill="#b24d16"></path><polygon points="179.53 96.36 181.91 97.96 179.88 113.86 177.5 112.35 179.53 96.36" fill="#ffc8c2"></polygon><path d="M184.82,105.6c-.8-.45-1.54-1-2.29-1.51l-1.33,10.51,2.38,1.51,1.34-10.48Z" fill="#0ab214"></path><path d="M185.56,109.71l-.92,7.28L187,118.5l.93-7.31C187.13,110.75,186.36,110.22,185.56,109.71Z" fill="#8bd346"></path><path d="M31.2,194.68c5.17,3,10.29,5.57,15.23,8.86L76.8,186.36,48.74,174.73,22.63,189.42C25.47,190.93,28.44,193,31.2,194.68Z" opacity="0.63" fill="url(#linear-gradient-6)" style="mix-blend-mode: multiply;"></path><path d="M43.87,143.87v37.91s36.43,2,36.43,0V143.87" fill="#0ab214"></path><ellipse cx="62.09" cy="181.45" rx="18.22" ry="8.32" fill="#0ab214"></ellipse><ellipse cx="62.09" cy="143.87" rx="18.22" ry="8.32" fill="#3129a3"></ellipse><path d="M50.74,150.34l.13.07c.7.24,1.41.46,2.13.65l-5-41.51a2.49,2.49,0,0,0-2.54.47l5.08,40.25Z" fill="#f78b72"></path><path d="M56.4,151.63l1.54-39a2.49,2.49,0,0,0-2.58.06L54.09,151.3A20.42,20.42,0,0,0,56.4,151.63Z" fill="#f78b72"></path><path d="M62.09,152.19l5-40.62,10.14,5.36-4.1,34.12A31,31,0,0,1,62.09,152.19Z" fill="#fcb749"></path></g></g></svg>